<svg width="30" height="30" viewBox="0 0 30 30" fill="none" xmlns="http://www.w3.org/2000/svg">
<path d="M25.9762 6.83625C26.0635 6.92333 26.1328 7.02679 26.1801 7.14068C26.2273 7.25458 26.2517 7.37668 26.2517 7.5C26.2517 7.62331 26.2273 7.74541 26.1801 7.85931C26.1328 7.97321 26.0635 8.07666 25.9762 8.16375L12.8512 21.2887C12.7642 21.3761 12.6607 21.4453 12.5468 21.4926C12.4329 21.5398 12.3108 21.5642 12.1875 21.5642C12.0642 21.5642 11.9421 21.5398 11.8282 21.4926C11.7143 21.4453 11.6108 21.3761 11.5237 21.2887L4.96124 14.7262C4.78521 14.5502 4.68631 14.3115 4.68631 14.0625C4.68631 13.8135 4.78521 13.5748 4.96124 13.3987C5.13728 13.2227 5.37604 13.1238 5.62499 13.1238C5.87395 13.1238 6.11271 13.2227 6.28874 13.3987L12.1875 19.2994L24.6487 6.83625C24.7358 6.74894 24.8393 6.67967 24.9532 6.63241C25.0671 6.58515 25.1892 6.56082 25.3125 6.56082C25.4358 6.56082 25.5579 6.58515 25.6718 6.63241C25.7857 6.67967 25.8892 6.74894 25.9762 6.83625V6.83625Z" fill="white"/>
</svg>
